<mxfile host="65bd71144e">
    <diagram name="Lapa-1" id="j-_7VGHLRjzNCakQfMWc">
        <mxGraphModel dx="327" dy="434" grid="1" gridSize="10" guides="1" tooltips="1" connect="1" arrows="1" fold="1" page="1" pageScale="1" pageWidth="827" pageHeight="1169" math="0" shadow="0">
            <root>
                <mxCell id="0"/>
                <mxCell id="1" parent="0"/>
                <mxCell id="TWWx9PtAK9WIx6-3KpzQ-12" value="&#10;&lt;b id=&quot;docs-internal-guid-713ec133-7fff-3746-a5a0-d8b7c017842d&quot; style=&quot;font-weight:normal;&quot;&gt;&lt;span style=&quot;font-size: 14pt; font-family: Inter, sans-serif; color: rgb(0, 0, 0); background-color: transparent; font-weight: 400; font-style: normal; font-variant: normal; text-decoration: none; vertical-align: baseline;&quot;&gt;READ buy products&lt;/span&gt;&lt;/b&gt;&#10;&#10;" style="rounded=1;whiteSpace=wrap;html=1;fillColor=#dae8fc;strokeColor=#6c8ebf;" parent="1" vertex="1">
                    <mxGeometry x="240" y="40" width="360" height="60" as="geometry"/>
                </mxCell>
                <mxCell id="TWWx9PtAK9WIx6-3KpzQ-13" value="" style="endArrow=classic;html=1;rounded=0;" parent="1" source="TWWx9PtAK9WIx6-3KpzQ-12" target="TWWx9PtAK9WIx6-3KpzQ-14" edge="1">
                    <mxGeometry width="50" height="50" relative="1" as="geometry">
                        <mxPoint x="390" y="370" as="sourcePoint"/>
                        <mxPoint x="420" y="150" as="targetPoint"/>
                    </mxGeometry>
                </mxCell>
                <mxCell id="TWWx9PtAK9WIx6-3KpzQ-14" value="START&lt;span id=&quot;docs-internal-guid-fb58cb49-7fff-b628-3406-530ce50940c9&quot;&gt;&lt;/span&gt;&lt;span id=&quot;docs-internal-guid-ac4a25b4-7fff-95d7-9a62-ec40f483273e&quot;&gt;&lt;/span&gt;&lt;span id=&quot;docs-internal-guid-ac4a25b4-7fff-95d7-9a62-ec40f483273e&quot;&gt;&lt;/span&gt;" style="rounded=0;whiteSpace=wrap;html=1;" parent="1" vertex="1">
                    <mxGeometry x="240" y="160" width="360" height="60" as="geometry"/>
                </mxCell>
                <mxCell id="TWWx9PtAK9WIx6-3KpzQ-16" value="" style="endArrow=classic;html=1;rounded=0;exitX=0.5;exitY=1;exitDx=0;exitDy=0;" parent="1" source="TWWx9PtAK9WIx6-3KpzQ-14" edge="1">
                    <mxGeometry width="50" height="50" relative="1" as="geometry">
                        <mxPoint x="390" y="370" as="sourcePoint"/>
                        <mxPoint x="420" y="320" as="targetPoint"/>
                    </mxGeometry>
                </mxCell>
                <mxCell id="TWWx9PtAK9WIx6-3KpzQ-17" value="WHILE (ALL PRODUCT BOUGHT)&amp;nbsp; &amp;amp;&amp;amp; buy products&lt;span id=&quot;docs-internal-guid-44026520-7fff-5bd2-14f1-4bb928eb069b&quot;&gt;&lt;/span&gt;" style="rhombus;whiteSpace=wrap;html=1;" parent="1" vertex="1">
                    <mxGeometry x="165" y="330" width="510" height="80" as="geometry"/>
                </mxCell>
                <mxCell id="TWWx9PtAK9WIx6-3KpzQ-18" value="" style="endArrow=classic;html=1;rounded=0;exitX=0.5;exitY=1;exitDx=0;exitDy=0;" parent="1" source="TWWx9PtAK9WIx6-3KpzQ-17" edge="1">
                    <mxGeometry width="50" height="50" relative="1" as="geometry">
                        <mxPoint x="430" y="430" as="sourcePoint"/>
                        <mxPoint x="420" y="480" as="targetPoint"/>
                    </mxGeometry>
                </mxCell>
                <mxCell id="TWWx9PtAK9WIx6-3KpzQ-19" value="END" style="rounded=1;whiteSpace=wrap;html=1;" parent="1" vertex="1">
                    <mxGeometry x="240" y="480" width="360" height="60" as="geometry"/>
                </mxCell>
            </root>
        </mxGraphModel>
    </diagram>
</mxfile>